HIERARCHY
ROOT Hips
{
  OFFSET -339.324 82.5146 320.513
  CHANNELS 6 Xposition Yposition Zposition Zrotation Xrotation Yrotation
  JOINT ToSpine
  {
    OFFSET -0.0105055 1.38907 -7.13956
    CHANNELS 3 Zrotation Xrotation Yrotation
    JOINT Spine
    {
      OFFSET 0.0105055 10 1
      CHANNELS 3 Zrotation Xrotation Yrotation
      JOINT Spine1
      {
        OFFSET 0 12 1.60637
        CHANNELS 3 Zrotation Xrotation Yrotation
        JOINT Neck
        {
          OFFSET 0 27 2.26658
          CHANNELS 3 Zrotation Xrotation Yrotation
          JOINT Head
          {
            OFFSET 0 9 2.12705
            CHANNELS 3 Zrotation Xrotation Yrotation
            End Site
            {
              OFFSET 0 11 2
            }
          }
        }
        JOINT LeftShoulder
        {
          OFFSET 8 19.6109 2.86452
          CHANNELS 3 Zrotation Xrotation Yrotation
          JOINT LeftArm
          {
            OFFSET 12 1 0.681055
            CHANNELS 3 Zrotation Xrotation Yrotation
            JOINT LeftForeArm
            {
              OFFSET 19 0 -1.52608
              CHANNELS 3 Zrotation Xrotation Yrotation
              JOINT LeftHand
              {
                OFFSET 23 0 0
                CHANNELS 3 Zrotation Xrotation Yrotation
                End Site
                {
                  OFFSET 10 0 0
                }
              }
            }
          }
        }
        JOINT RightShoulder
        {
          OFFSET -8 19.6109 2.86452
          CHANNELS 3 Zrotation Xrotation Yrotation
          JOINT RightArm
          {
            OFFSET -12 1 0.681055
            CHANNELS 3 Zrotation Xrotation Yrotation
            JOINT RightForeArm
            {
              OFFSET -19 0 -1.52608
              CHANNELS 3 Zrotation Xrotation Yrotation
              JOINT RightHand
              {
                OFFSET -23 0 0
                CHANNELS 3 Zrotation Xrotation Yrotation
                End Site
                {
                  OFFSET -10 0 0
                }
              }
            }
          }
        }
      }
    }
  }
  JOINT LeftUpLeg
  {
    OFFSET 9 -7.17245 0
    CHANNELS 3 Zrotation Xrotation Yrotation
    JOINT LeftLeg
    {
      OFFSET 0 -44.1113 0
      CHANNELS 3 Zrotation Xrotation Yrotation
      JOINT LeftFoot
      {
        OFFSET 0 -36.1829 0
        CHANNELS 3 Zrotation Xrotation Yrotation
        JOINT LeftToeBase
        {
          OFFSET 0 -4.84184 13
          CHANNELS 3 Zrotation Xrotation Yrotation
          End Site
          {
            OFFSET 0 1 6
          }
        }
      }
    }
  }
  JOINT RightUpLeg
  {
    OFFSET -9 -7.17245 0
    CHANNELS 3 Zrotation Xrotation Yrotation
    JOINT RightLeg
    {
      OFFSET 0 -44.0551 0
      CHANNELS 3 Zrotation Xrotation Yrotation
      JOINT RightFoot
      {
        OFFSET 0 -36.1469 0
        CHANNELS 3 Zrotation Xrotation Yrotation
        JOINT RightToeBase
        {
          OFFSET 0 -4.92256 13
          CHANNELS 3 Zrotation Xrotation Yrotation
          End Site
          {
            OFFSET 0 1 6
          }
        }
      }
    }
  }
}
MOTION
Frames:	20
Frame Time:	0.0333333
-339.324 82.5146 320.513 -6.41566 -1.1188 128.66 0 0 0 9.17281 10.6371 6.34075 -19.3311 -2.44794 9.67648 8.36872 -7.6284 -0.997346 -3.98834 1.44296 1.90656 -27.6681 2.64784 -4.32496 -57.1993 8.08913 18.5877 -3.70069 -14.1732 1.95827 -8.95384 -0.067159 0.842042 23.5051 5.59288 15.1284 51.9313 10.4351 1.62551 16.0432 -41.5123 19.1491 -3.29557 -0.467427 16.1411 -7.31661 -47.507 8.94202 -3.60166e-007 49.2183 -17.0263 16.2415 -7.38832 1.05567 0.584143 -2.91457 -1.83567 0.436734 25.5546 -10.3426 -0.816708 11.9836 -0.264662 -12.8625 -9.86824 -1.11508 14.0634 -45.1118 2.60541 
-334.496 82.8963 317.195 -7.31272 -0.695955 130.535 0 0 0 5.37715 8.44539 5.45064 -18.6802 -2.07719 8.50572 12.9175 -9.6674 -1.29783 -4.09638 3.22962 2.53041 -27.4718 2.90151 -5.12111 -53.6692 14.4976 13.9409 -4.69392 -11.219 2.03736 -6.34655 -0.0671512 1.21118 22.0853 4.79463 13.2492 55.582 2.09618 -0.314418 5.3812 -20.5758 10.6367 -0.367129 -0.0368245 11.4556 -9.74444 -45.422 6.52166 -4.71003e-008 53.4357 -16.9945 18.8245 -12.633 2.10244 1.09531 0.0409603 -4.59173 -0.718586 21.7137 -10.2118 0.0297966 23.6499 -1.55436 -15.0915 -0.881495 -0.11677 16.4829 -45.57 9.14851 
-329.747 83.0801 313.809 -5.99462 -0.827066 133.592 0 0 0 2.23239 9.36984 3.71021 -15.272 -5.00132 5.7967 16.2955 -7.3703 -1.90551 -5.26695 1.862 3.22602 -28.914 3.4676 -6.38449 -45.6597 21.1773 8.8825 -5.45012 -10.7904 0.480795 -2.40181 -0.0723535 3.45047 21.3838 4.23213 11.6533 54.4005 -4.10207 -4.67407 1.81448 -12.4825 6.93565 2.56289 0.178674 7.97462 -10.2762 -41.587 3.51349 7.02853e-008 57.3895 -16.7058 20.7757 -18.6715 3.45236 1.22317 -0.0845598 -5.11548 -0.874314 15.9606 -13.5121 1.01969e-007 41.0263 3.2072 -16.9742 4.66776 0.696902 11.8612 -42.8244 -1.88805 
-325.762 83.9022 310.965 -4.70333 0.567657 136.383 0 0 0 -1.0922 11.7854 2.29414 -12.7924 -6.48401 3.66001 17.9492 -7.72795 -2.16042 -6.36248 3.29703 3.65076 -25.344 3.2746 -6.85599 -35.3445 18.8191 -1.94538 -4.25686 -13.7049 3.01434 -5.22094 0.112828 -2.4743 18.9857 3.31984 9.44811 52.0442 -6.25508 -8.57812 0.981575 -10.9738 5.80608 2.00911 0.0539085 3.07368 -10.963 -35.4682 1.88928 -4.29022e-007 57.3673 -18.3829 22.4584 -20.9131 4.19681 -0.0578079 0.251934 0.171988 -2.86421 8.99084 -14.1626 2.57448e-007 58.3363 8.06222 -21.0451 8.98543 1.67232 6.79345 -40.1441 -18.0325 
-321.875 84.0507 307.842 -3.56252 0.385414 137.578 0 0 0 -1.05313 13.315 1.25588 -12.0353 -8.7042 2.26748 18.7614 -7.5787 -2.70585 -7.43401 4.80918 3.69982 -19.0926 2.65927 -6.84579 -29.1489 9.43213 -12.1789 -2.48388 -8.04847 1.50208 -5.36499 0.126171 -2.69244 16.6395 2.72731 8.13335 45.9275 -8.70112 -13.8753 0.971869 -17.064 4.64274 5.41404 0.157782 3.33614 -9.42243 -31.4085 2.37298 -4.28553e-008 58.8808 -19.0828 24.88 -25.1463 5.63342 -0.0727612 -0.464475 0.436714 -4.40198 -0.542895 -10.9791 -9.40683e-007 77.7924 6.34305 -9.60838 -6.71831 -0.56529 3.9699 -15.6929 -15.7594 
-318.493 86.1943 304.531 -1.44884 0.587888 136.623 0 0 0 -1.08349 13.8366 0.913895 -8.80032 -7.8941 1.66884 14.9982 -8.3399 -0.622024 -4.94657 5.78433 4.09419 -16.3227 2.27663 -6.34215 -23.0241 0.460424 -20.9396 -1.10805 -6.07065 -0.338527 -3.14737 0.057641 -2.09787 11.2617 1.8442 6.46148 40.5615 -9.67318 -16.0331 0.0909695 -14.4048 3.72378 6.06756 0.183907 3.46896 -6.1833 -23.3514 6.03756 1.51459e-006 53.2518 -21.1637 26.9556 -25.0704 6.10056 0.14977 -1.83182 -0.137356 -4.44083 -9.83455 -8.47484 4.20859e-006 89.4003 2.33883 -24.4955 -4.79048 -1.0405 4.53475 -20.0974 -15.9642 
-315.133 89.4149 301.204 1.57179 -0.0821402 135.634 0 0 0 0.154355 15.237 -0.615182 -6.20546 -8.31409 -0.0496359 15.173 -7.7033 1.23204 -5.4834 6.84325 6.16269 -11.375 1.86567 -6.52175 -18.9522 -4.86636 -23.7797 -0.174859 -5.35113 -1.5003 -0.465334 0.0128559 -3.16502 9.53618 1.73376 6.72368 33.9392 -9.23437 -16.4069 0.378114 -15.8125 4.29421 4.89913 0.139937 3.27027 -2.10318 -14.1238 9.53166 -2.02772e-007 44.5484 -23.709 21.8801 -23.3935 4.58328 0.621646 -2.24079 -2.15926 -0.99649 -18.7224 -4.00772 -180 84.8468 174.785 -39.2097 -2.83217 -1.00894 6.14278 -28.5418 -12.525 
-311.637 93.7897 297.431 5.11971 -1.26656 135.351 0 0 0 2.83382 15.7928 -2.43111 -2.94584 -8.4165 -1.92995 10.5178 -3.24692 3.5691 -1.8419 5.37664 6.72779 -10.0921 1.76134 -6.58902 -13.2201 -5.18231 -23.4521 -0.407236 -7.55983 -2.22173 3.92677 -0.141242 -4.11836 7.00389 1.78594 8.64761 29.3273 -8.62604 -18.0695 0.917585 -14.7368 6.8986 4.28824 0.136998 3.65794 0.964914 -4.47092 10.2541 2.38878e-007 32.6531 -24.2485 15.9451 -12.7114 1.78745 0.966225 -8.06324 -2.53958 3.84742 -25.7459 2.51799 -180 82.0807 170.098 -26.4034 -13.0697 -3.0785 4.97527 -19.0127 -3.85238 
-308.021 98.2978 293.5 7.3062 -1.47738 136.673 0 0 0 4.60994 15.0019 -4.0402 -1.7241 -6.75004 -3.63761 9.01803 -0.212768 4.51667 -2.21049 4.45308 7.5981 -4.98081 1.32972 -6.82106 -14.6814 -5.31793 -25.5514 -0.240799 -7.68913 0.201369 4.23851 -0.157164 -4.24518 7.35584 2.07233 10.2857 24.7301 -6.84896 -20.389 1.55352 -15.2609 8.35296 4.57227 0.177533 4.44479 1.73742 2.02476 5.68678 -0.50271 23.2548 -19.8468 10.0983 3.40649 -0.301061 1.5806 -12.4223 -5.65013 6.33206 -29.9927 4.58965 180 83.9075 164.895 -28.4026 -19.5522 -4.99337 4.94948 -19.1159 -4.87554 
-304.42 102.017 289.721 7.78769 -1.71228 139.53 0 0 0 4.70737 13.4865 -5.12552 0.0928546 -5.4776 -5.0763 8.68963 2.8017 4.30754 -4.23708 2.42547 8.03268 -1.98035 1.18238 -8.05901 -15.0091 -4.67887 -28.1528 -0.385561 -10.295 2.83271 2.34284 -0.071176 -3.47975 6.80177 2.01247 10.3441 22.4738 -4.66808 -23 2.15712 -15.9903 9.23288 5.68838 0.216529 4.35626 2.03163 3.77014 5.05412 0.641518 20.6238 -20.8374 6.14947 12.8318 -0.692155 0.460331 -2.41062 -1.38545 6.45582 -34.2551 3.90486 180 86.5533 162.572 -28.4921 -21.2569 -5.45566 5.38041 -20.5027 -3.24077 
-301.169 104.492 286.454 8.09203 -1.62761 143.75 0 0 0 4.30292 13.6355 -6.27811 2.67618 -5.71827 -6.51328 8.80568 5.91255 3.30849 -5.13048 0.00246532 7.48876 -3.21072 1.4483 -9.28593 -12.7932 -4.28153 -30.8089 -0.759463 -10.9391 3.96873 0.844901 -0.0288689 -3.91381 7.53278 2.19272 10.9279 20.253 -3.33781 -26.5148 1.75155 -15.601 7.78795 6.34384 0.233338 4.2087 3.10829 4.30166 5.7898 -0.43433 20.0669 -24.5946 3.70193 13.5603 -0.440279 0.763824 -5.34738 -2.12856 4.90216 -37.7394 1.41906 180 89.4442 164.776 -26.9641 -18.9953 -4.59379 5.26585 -19.6388 -1.37829 
-297.744 106.001 283.25 8.59865 -0.598934 146.281 0 0 0 3.81058 15.2184 -6.46165 3.84707 -6.14662 -6.78537 10.2254 6.44569 2.3606 -5.66811 -0.146795 7.20469 -3.77694 1.54371 -9.5469 -12.8009 -4.05192 -34.9791 -1.21992 -9.88994 4.65868 1.37066 -0.0449182 -3.75378 8.31443 2.25584 10.6902 20.2015 -2.99524 -29.0709 1.45374 -17.6477 5.56231 5.39102 0.155494 3.30183 3.47957 5.01213 7.09212 -1.14542 20.3396 -25.2844 -2.35854 11.9454 0.24679 0.545922 -4.24701 -1.31825 4.00783 -38.8787 1.0406 -4.10185e-006 87.0242 -8.92332 -23.6407 -20.7899 -4.39716 3.36159 -12.454 -1.47741 
-294.139 106.328 280.095 8.64116 -0.459467 147.924 0 0 0 3.33572 15.2404 -6.11185 3.74374 -6.23425 -6.42377 14.2728 7.45352 0.0397514 -8.14988 -0.31457 6.99235 -3.63845 1.66482 -10.7073 -13.823 -2.94223 -38.1518 -1.84893 -9.73927 4.65453 1.81522 -0.0573366 -3.61804 10.3957 2.59577 11.1004 21.3848 -2.18813 -31.0739 0.923126 -20.5136 2.18552 5.6485 0.114439 2.31943 3.7648 3.34739 8.08277 -0.971997 23.2443 -21.5555 -3.64333 8.93601 0.284785 0.646327 -2.20328 -2.27924 4.12216 -39.7147 1.2076 -4.45252e-007 80.9493 -5.47016 -23.7871 -19.3321 -4.10895 4.38723 -16.4388 -2.27947 
-290.421 105.722 276.615 8.79781 0.395065 148.551 0 0 0 1.68775 13.994 -5.11538 4.74118 -3.02887 -5.8163 16.4529 5.37256 -1.15046 -8.80037 1.34317 6.56338 -4.24297 1.73269 -10.6383 -16.6644 -3.35303 -41.6112 -1.94531 -8.5739 4.63694 1.93939 -0.0755467 -4.46109 11.1738 2.50484 10.0613 25.8896 0.456298 -29.1423 0.894574 -24.1844 -1.73036 6.04773 0.0372298 0.704762 3.31737 3.70628 7.77946 -0.921685 22.7775 -18.4206 -1.16391 7.60129 0.0773225 0.537304 -2.69535 -1.67011 4.58907 -38.9513 1.59962 1.10992e-006 73.5307 -5.58243 -29.1635 -16.4965 -4.31926 5.80187 -21.79 -2.00059 
-286.703 104.057 273.032 9.30169 1.33512 149.543 0 0 0 1.58801 14.5415 -4.97058 4.37788 -3.26124 -5.52578 18.7397 8.16886 -3.05979 -9.6133 -0.211199 5.97275 -7.9705 2.1858 -10.5237 -15.0725 0.44872 -41.5204 -2.52047 -11.4045 4.67641 0.83509 -0.0319899 -4.38745 15.3878 3.60629 12.6304 28.5316 2.64702 -31.3498 1.12333 -18.4696 -3.97205 7.8009 0.177467 2.60243 3.1511 4.91011 6.94347 -0.590693 21.2644 -19.6912 5.86876 3.36863 -0.172724 0.528081 -1.86558 -1.81981 4.44213 -37.7141 0.333748 5.71065e-007 65.5037 -5.39361 -31.6555 -13.2597 -3.77457 6.84731 -25.9761 -2.71737 
-282.896 101.303 269.433 8.80325 1.51604 150.592 0 0 0 1.57245 13.8123 -4.43514 1.89205 -4.05387 -4.435 24.1735 10.6206 -6.73866 -11.9033 -2.05762 5.14144 -8.86191 2.64983 -12.6442 -21.573 -0.295705 -41.6486 -2.25546 -7.2799 4.62388 0.843019 -0.0346231 -4.7036 19.859 4.40226 13.0983 32.3921 1.72188 -32.547 1.48476 -21.0173 -2.561 6.92209 0.104784 1.7324 2.79653 3.61526 5.70856 0.274696 23.2068 -23.8288 11.6301 1.57097 -0.159999 0.6533 -1.11083 -2.52958 3.98075 -37.9193 -0.225966 -3.74588e-007 57.7358 -4.51526 -29.3947 -12.5456 -3.30294 6.74233 -26.8141 -5.32055 
-279.1 97.8412 265.792 8.29747 2.62792 150.934 0 0 0 0.740764 15.0424 -3.99821 0.861666 -5.4678 -3.70828 24.6036 11.3066 -7.14504 -11.7138 -3.24144 4.88513 -13.2493 3.17093 -12.0544 -23.0917 2.7311 -39.9628 -2.48273 -7.56516 4.32778 -0.613567 0.0255958 -4.77753 23.2353 4.94979 13.156 36.0451 1.33424 -31.5895 2.36904 -24.2147 -0.561414 6.68473 0.209719 3.58981 2.19935 3.4425 4.11373 1.16084 27.589 -28.0368 13.5316 -0.00943388 0.00111921 1.67886 -9.66257 -6.61339 2.9449 -37.4847 -1.46671 5.98616e-008 49.678 -3.5866 -29.055 -13.1566 -3.4233 6.35955 -25.5441 -6.00943 
-275.722 92.6894 262.604 9.92184 3.33701 150.687 0 0 0 1.52977 17.0661 -3.47669 2.47323 -5.54882 -3.15964 22.0735 10.0204 -6.36027 -10.6728 -3.93353 4.15517 -19.1474 3.61338 -10.5013 -25.5441 4.4307 -38.6286 -2.61005 -8.6553 4.07212 -0.244034 0.00592771 -2.78294 24.954 5.13137 12.8641 39.9581 1.56438 -28.8616 3.30214 -26.0832 0.862426 6.42958 0.228302 4.06295 4.94011 8.65276 -1.27398 1.25275e-007 32.7898 -22.5855 13.4849 -21.969 2.62911 3.0408 -7.94102 -14.6466 4.38841 -38.5525 -2.07199 2.81335e-008 45.1988 -1.9299 -27.8668 -13.0029 -3.23898 5.81291 -23.5743 -6.99514 
-271.568 88.0889 258.674 9.36736 4.9077 149.716 0 0 0 -1.37086 17.4234 -2.87891 4.40284 -5.07516 -2.9719 16.4868 8.01125 -3.56708 -6.66305 -3.68239 3.76628 -26.1782 4.07146 -9.0432 -28.1398 4.67276 -34.4134 -2.99577 0.939194 4.58683 -4.71395 0.0982187 -2.38591 24.194 4.95506 12.6805 44.916 1.68124 -22.6819 2.97125 -25.7325 -0.914196 5.22946 0.185289 4.05567 7.63662 15.7702 6.64499 4.93983e-007 33.2043 -35.7515 18.1739 -35.5124 5.86384 2.41937 2.08473 -9.9906 3.57913 -38.3746 -6.02955 -4.15e-008 39.8354 1.07006 -29.6188 -5.21298 -1.37913 7.48055 -33.1693 -9.68847 
-267.342 85.097 253.951 6.59133 5.77837 148.168 0 0 0 -4.83353 16.2797 -2.38746 4.54168 -3.6167 -2.89261 14.7592 1.94154 -1.57151 -6.07376 -1.27853 4.38047 -26.6076 4.31166 -9.61106 -34.2551 6.37489 -29.9059 -3.25233 -5.46272 4.60361 -5.20355 -0.0149886 0.329848 25.0985 4.52484 10.8858 48.3056 0.971663 -14.9726 2.77802 -22.4838 -0.479188 2.69006 0.0790314 3.365 5.00354 22.6097 11.5952 -0.306981 29.1882 -35.2749 25.4448 -37.8305 8.84783 2.95916 -3.26602 -12.9917 1.13833 -38.9715 -10.5155 -1.83178e-008 37.6844 3.27315 -25.9844 -5.77142 -1.33268 7.04648 -30.7102 -9.26529 
